<svg width="45" height="33" viewBox="0 0 45 33" fill="none" xmlns="http://www.w3.org/2000/svg">
<path d="M42 32.6591H3C2.20435 32.6591 1.44129 32.3204 0.87868 31.7176C0.316071 31.1149 0 30.2973 0 29.4448L0 3.73052C0 2.87804 0.316071 2.06047 0.87868 1.45768C1.44129 0.854882 2.20435 0.516235 3 0.516235L42 0.516235C42.7956 0.516235 43.5587 0.854882 44.1213 1.45768C44.6839 2.06047 45 2.87804 45 3.73052V29.4448C45 30.2973 44.6839 31.1149 44.1213 31.7176C43.5587 32.3204 42.7956 32.6591 42 32.6591ZM35.605 26.9256H35.5875C35.4165 26.9254 35.2473 26.9633 35.0906 27.0369C34.934 27.1104 34.7933 27.218 34.6775 27.3528L34.6763 27.3542C34.4299 27.6432 34.2935 28.0205 34.2937 28.4118C34.2939 28.8032 34.4309 29.1803 34.6775 29.4689L34.6763 29.4676C34.9037 29.7314 35.2275 29.8961 35.5875 29.8961H35.605H35.6037C35.7649 29.908 35.9261 29.8762 36.0727 29.8036C36.2193 29.731 36.3465 29.6201 36.4425 29.481L36.4438 29.4783V29.8345H37.01V25.8582H36.4438V27.3448C36.3515 27.2142 36.2323 27.1083 36.0954 27.0354C35.9586 26.9624 35.8078 26.9244 35.655 26.9243L35.6025 26.9256H35.605ZM30.2925 26.9256H30.2638C29.9025 26.9256 29.5763 27.0863 29.345 27.3448C29.0983 27.6379 28.9619 28.0185 28.9622 28.4131C28.9624 28.8078 29.0993 29.1882 29.3462 29.481L29.345 29.4796C29.5775 29.7381 29.9037 29.8988 30.265 29.8988H30.295H30.2938L30.35 29.9002C30.4987 29.9003 30.6454 29.8625 30.7778 29.7898C30.9101 29.7172 31.0245 29.6117 31.1112 29.4823L31.1138 29.4796V29.8359H31.7013V27.01H31.115V27.3448C31.0203 27.2082 30.8958 27.0986 30.7525 27.0255C30.6091 26.9524 30.4511 26.9181 30.2925 26.9256H30.295H30.2925ZM27.7325 26.9256L27.68 26.9243C27.312 26.9243 26.9591 27.0809 26.6989 27.3597C26.4387 27.6385 26.2925 28.0166 26.2925 28.4109C26.2925 28.8052 26.4387 29.1833 26.6989 29.4621C26.9591 29.7409 27.312 29.8975 27.68 29.8975L27.735 29.8961H27.7325L27.7837 29.8975C28.1212 29.8975 28.43 29.7716 28.6737 29.56L28.6712 29.5627L28.3975 29.0604C28.2167 29.2137 27.9953 29.3018 27.765 29.3122H27.7625C27.6476 29.3201 27.5325 29.3017 27.4247 29.2583C27.317 29.2149 27.2191 29.1474 27.1375 29.0604C26.9923 28.88 26.9125 28.6496 26.9127 28.4113C26.9129 28.173 26.9932 27.9428 27.1388 27.7627L27.1375 27.764C27.2087 27.6843 27.2943 27.6209 27.3891 27.5777C27.4838 27.5344 27.5858 27.5121 27.6887 27.5122H27.715H27.7137C27.9623 27.5128 28.2037 27.6019 28.4 27.7653L28.3975 27.7627L28.6712 27.2604C28.4129 27.0417 28.093 26.9232 27.7638 26.9243H27.7325H27.7337L27.7325 26.9256ZM22.6325 26.9256H22.6012C22.4315 26.9253 22.2634 26.9623 22.1075 27.0344C21.9516 27.1065 21.8112 27.2122 21.695 27.3448C21.5703 27.4889 21.4733 27.658 21.4096 27.8423C21.3459 28.0266 21.3167 28.2225 21.3237 28.4189V28.4162L21.3225 28.4778C21.3225 28.8729 21.4688 29.2319 21.705 29.4944C21.9425 29.7475 22.27 29.9028 22.6312 29.9028L22.6737 29.9015H22.6712L22.7225 29.9028C23.1137 29.9028 23.4713 29.7515 23.7488 29.5011L23.7463 29.5037L23.4725 29.0444C23.2627 29.2436 22.9928 29.3549 22.7125 29.3578H22.7113C22.521 29.3754 22.3318 29.3139 22.1828 29.1859C22.0338 29.058 21.9366 28.8735 21.9112 28.6707V28.6667H23.8838V28.4162C23.9013 28.0208 23.7744 27.6336 23.53 27.3368L23.5312 27.3381C23.4214 27.2077 23.2872 27.1034 23.1373 27.0321C22.9874 26.9608 22.8252 26.9241 22.6612 26.9243H22.6338H22.635L22.6325 26.9256ZM18.7863 27.01V27.5752H19.3325V28.8528C19.3325 29.5466 19.6413 29.8988 20.25 29.8988H20.2712C20.5237 29.8988 20.7575 29.8185 20.9538 29.6819L20.9488 29.6845L20.7912 29.1609C20.6362 29.2546 20.4617 29.3053 20.2837 29.3082H20.2825C20.035 29.3082 19.91 29.1542 19.91 28.8488V27.5765H20.8475V27.0113H19.91V26.1542H19.3237V27.0113L18.7863 27.01ZM16.3275 29.0591L16.0737 29.5412C16.3825 29.7649 16.7625 29.8975 17.1713 29.8975H17.2087H17.2063L17.2887 29.9002C17.5875 29.9002 17.8662 29.8051 18.1 29.6417L18.0938 29.6457C18.193 29.5733 18.2742 29.4761 18.3304 29.3624C18.3866 29.2487 18.4161 29.1221 18.4163 28.9935V28.9747V28.9761C18.4163 28.5046 18.1075 28.2261 17.4987 28.139L17.2262 28.0961C16.9263 28.0412 16.7762 27.9435 16.7762 27.8042C16.7762 27.5953 16.94 27.4908 17.265 27.4908H17.2712C17.5775 27.4908 17.865 27.5765 18.1138 27.7265L18.105 27.7211L18.34 27.2189C18.0145 27.0114 17.6397 26.9096 17.2612 26.9256H17.265L17.1975 26.9243C16.933 26.9238 16.6752 27.0134 16.4613 27.1801L16.465 27.1774C16.3737 27.2536 16.2999 27.3511 16.2492 27.4625C16.1985 27.5739 16.1723 27.6963 16.1725 27.8203V27.8484V27.847C16.1725 28.3051 16.4813 28.5796 17.09 28.6627L17.3438 28.7055C17.655 28.7618 17.8125 28.8595 17.8125 28.9988C17.8125 29.2345 17.6125 29.3551 17.2063 29.3551H17.195C16.8824 29.3558 16.5773 29.2519 16.3225 29.0578L16.3275 29.0618V29.0591ZM14.1 26.9243H14.0688C13.8991 26.924 13.7313 26.961 13.5756 27.0331C13.4199 27.1052 13.2797 27.2109 13.1637 27.3435C12.9231 27.6399 12.7906 28.0196 12.7909 28.4125C12.7911 28.8053 12.924 29.1849 13.165 29.481L13.1637 29.4796C13.28 29.6123 13.4204 29.7179 13.5763 29.79C13.7322 29.8621 13.9002 29.8992 14.07 29.8988H14.1025H14.1012C14.2623 29.908 14.4231 29.8748 14.5695 29.8022C14.7159 29.7296 14.8435 29.6198 14.9412 29.4823L14.9425 29.4796V29.8359H15.5087V27.01H14.9425V27.3448C14.8432 27.2137 14.7178 27.108 14.5755 27.0355C14.4332 26.9629 14.2776 26.9254 14.12 26.9256H14.1H14.1012L14.1 26.9243ZM32.46 27.0086V29.8345H33.0262V28.2448C33.0262 27.76 33.2163 27.5136 33.5925 27.5136H33.605C33.7288 27.5136 33.8462 27.5444 33.95 27.5993L33.945 27.5966L34.12 27.01C34.0028 26.9538 33.8759 26.925 33.7475 26.9256L33.7075 26.9269H33.71H33.6888C33.5542 26.9269 33.4221 26.9653 33.306 27.0383C33.19 27.1113 33.0942 27.2162 33.0288 27.3421L33.0262 27.3461V27.0113L32.46 27.0086ZM24.4725 27.0086V29.8345H25.0588V28.2448C25.0588 27.76 25.2488 27.5136 25.625 27.5136H25.6375C25.7612 27.5136 25.8787 27.5444 25.9825 27.5993L25.9775 27.5966L26.1538 27.01C26.0313 26.9538 25.8994 26.9251 25.7663 26.9256H25.7425H25.7437H25.7212C25.5868 26.9255 25.4549 26.9639 25.339 27.0369C25.2232 27.1099 25.1277 27.2149 25.0625 27.3408L25.06 27.3448V27.01L24.4725 27.0086ZM11.1125 27.5109C11.5013 27.5109 11.6988 27.764 11.6988 28.2609V29.8305H12.285V28.0519L12.2863 28.0078C12.2865 27.7251 12.1843 27.4533 12.0012 27.2497C11.7949 27.0427 11.5227 26.9278 11.24 26.9283H11.2288C11.0486 26.9159 10.8686 26.9556 10.7076 27.0432C10.5466 27.1308 10.4106 27.2632 10.3138 27.4265L10.3112 27.4305C10.2229 27.2669 10.0934 27.1331 9.93767 27.0444C9.7819 26.9556 9.60602 26.9154 9.43 26.9283H9.4325H9.42125C9.27443 26.9284 9.12977 26.9662 8.99947 27.0387C8.86917 27.1112 8.75703 27.2162 8.6725 27.3448L8.67 27.3475V27.0127H8.08625V29.8386H8.6725V28.2662C8.6725 27.7667 8.89 27.5162 9.3175 27.5162C9.70625 27.5162 9.90375 27.7694 9.90375 28.2662V29.8359H10.47V28.2662C10.47 27.7653 10.6875 27.5162 11.1137 27.5162L11.1125 27.5109ZM28.6325 3.19481H28.5912C26.6365 3.19144 24.7263 3.81968 23.11 4.99749L23.1437 4.97472C24.7757 6.39216 25.976 8.29886 26.5913 10.4511L26.6112 10.5314C26.9062 11.5292 27.075 12.6756 27.075 13.8662C27.075 15.0435 26.9088 16.1778 26.6012 17.2466L26.6213 17.1662C26.0212 19.3397 24.8146 21.2642 23.1637 22.6814L23.1437 22.6988C24.7646 23.8637 26.6733 24.4831 28.625 24.4774C30.025 24.4774 31.3562 24.1653 32.5625 23.6028L32.4987 23.6296C34.8631 22.5685 36.7491 20.5631 37.7575 18.0381L37.7812 17.9698C38.2812 16.7511 38.5725 15.3301 38.5725 13.8368C38.5725 12.3435 38.2812 10.9225 37.7562 9.63677L37.7812 9.70374C36.7897 7.16829 34.9137 5.14765 32.5525 4.07204L32.4888 4.04659C31.2758 3.48285 29.9671 3.1942 28.645 3.19882H28.6313H28.6325V3.19481ZM16.3675 3.19481H16.3538C15.0093 3.19307 13.6791 3.49041 12.4475 4.06802L12.51 4.04124C10.14 5.09738 8.24885 7.10387 7.24 9.63275L7.21625 9.70106C6.71625 10.9198 6.425 12.3408 6.425 13.8341C6.425 15.3274 6.71625 16.7484 7.24125 18.0341L7.21625 17.9671C8.20664 20.5003 10.0783 22.5211 12.435 23.6015L12.4987 23.627C13.6412 24.1627 14.9737 24.4747 16.3725 24.4747C18.3381 24.4783 20.2596 23.8504 21.8888 22.672L21.8538 22.6961C20.213 21.2852 19.008 19.3765 18.3962 17.2198L18.3775 17.1408C18.075 16.0732 17.9229 14.9632 17.9263 13.8475C17.9247 12.1525 18.2747 10.4782 18.9509 8.94584C19.6271 7.41344 20.6126 6.06117 21.8363 4.98677L21.855 4.9707C20.2471 3.80605 18.3496 3.18636 16.4088 3.19213H16.3638H16.3663L16.3675 3.19481ZM22.5 5.47561C20.9205 6.78353 19.7542 8.57972 19.1587 10.6211L19.14 10.6948C18.8387 11.7167 18.6869 12.7825 18.69 13.8542C18.69 14.9711 18.8512 16.0466 19.15 17.0578L19.1313 16.9828C19.7143 19.0457 20.8842 20.862 22.4775 22.1778L22.5 22.1953C24.0868 20.8955 25.2578 19.0999 25.8512 17.0564L25.87 16.9841C26.1657 15.9711 26.3145 14.9155 26.3112 13.8542C26.3112 12.7252 26.1462 11.639 25.8425 10.6185L25.8612 10.6935C25.275 8.63278 24.1095 6.81617 22.5237 5.49168L22.5012 5.47427L22.5 5.47561ZM35.6825 29.3109H35.6612C35.5571 29.3109 35.454 29.2877 35.3587 29.2428C35.2634 29.1978 35.1778 29.1321 35.1075 29.0497C34.9618 28.8732 34.8815 28.6456 34.8817 28.41C34.882 28.1743 34.9627 27.9469 35.1087 27.7707L35.1075 27.772C35.182 27.6888 35.2715 27.6226 35.3705 27.5774C35.4696 27.5322 35.5761 27.5089 35.6838 27.5089C35.7914 27.5089 35.8979 27.5322 35.997 27.5774C36.096 27.6226 36.1855 27.6888 36.26 27.772C36.4052 27.9504 36.4851 28.1791 36.4849 28.4158C36.4847 28.6525 36.4043 28.8811 36.2588 29.0591L36.26 29.0578C36.1883 29.138 36.1021 29.2018 36.0067 29.2453C35.9113 29.2888 35.8087 29.3111 35.705 29.3109H35.6825H35.6838H35.6825ZM30.3512 29.3109H30.3238C30.2227 29.3109 30.1228 29.2887 30.0301 29.2456C29.9374 29.2025 29.854 29.1395 29.785 29.0604C29.6448 28.8772 29.5683 28.6476 29.5685 28.4106C29.5687 28.1737 29.6457 27.9442 29.7863 27.7613L29.785 27.7627C29.8538 27.6832 29.9371 27.6198 30.0298 27.5764C30.1225 27.5331 30.2226 27.5108 30.3238 27.5109H30.3525H30.3512H30.3737C30.5925 27.5109 30.79 27.6113 30.9262 27.772C31.0662 27.9341 31.1512 28.1511 31.1512 28.3895V28.4162V28.4149L31.1525 28.4511C31.1529 28.6774 31.076 28.896 30.9363 29.0658L30.9375 29.0644C30.8668 29.1427 30.7821 29.2048 30.6884 29.2471C30.5948 29.2895 30.4941 29.3111 30.3925 29.3109L30.35 29.3095H30.3525L30.3512 29.3109ZM14.1788 29.3109L14.1425 29.3122C14.0399 29.3125 13.9382 29.2903 13.8439 29.247C13.7495 29.2037 13.6644 29.1402 13.5938 29.0604C13.4536 28.8772 13.377 28.6476 13.3773 28.4106C13.3775 28.1737 13.4545 27.9442 13.595 27.7613L13.5938 27.7627C13.6692 27.6779 13.7609 27.6117 13.8626 27.5685C13.9642 27.5252 14.0733 27.5061 14.1825 27.5122H14.1813H14.21C14.3118 27.5121 14.4125 27.5353 14.5052 27.5804C14.5979 27.6254 14.6805 27.6912 14.7475 27.7734L14.7487 27.7747C14.8876 27.9562 14.9634 28.1838 14.9632 28.4185C14.963 28.6532 14.8867 28.8806 14.7475 29.0618L14.7487 29.0604C14.6796 29.1401 14.5958 29.2035 14.5027 29.2469C14.4095 29.2902 14.309 29.3124 14.2075 29.3122H14.18H14.1813L14.1788 29.3109ZM23.3 28.1591H21.9338C21.9512 27.978 22.0306 27.8102 22.1566 27.6881C22.2827 27.566 22.4465 27.4983 22.6164 27.498C22.7863 27.4976 22.9503 27.5647 23.0768 27.6863C23.2033 27.8079 23.2832 27.9754 23.3013 28.1564V28.1591H23.3Z" fill="#5ABAFF"/>
</svg>
