<svg width="34" height="34" viewBox="0 0 34 34" fill="none" xmlns="http://www.w3.org/2000/svg">
<path d="M13.5811 22.6631L14.29 18.4526L14.2948 18.4239L14.3029 18.396C14.384 18.117 14.5535 17.8719 14.7859 17.6975C15.0182 17.5231 15.3009 17.4289 15.5914 17.4289L13.5811 22.6631ZM13.5811 22.6631C13.5678 22.723 13.5351 22.777 13.4879 22.8167C13.4373 22.8591 13.3734 22.8824 13.3073 22.8822H13.3064H11.1074C11.0677 22.882 11.0286 22.8732 10.9926 22.8564C10.9565 22.8395 10.9245 22.815 10.8987 22.7845C10.873 22.754 10.8543 22.7183 10.8437 22.6798C10.8332 22.6414 10.8312 22.6011 10.8378 22.5619C10.8378 22.5618 10.8378 22.5618 10.8378 22.5617L13.0526 9.39611C13.0526 9.39598 13.0526 9.39586 13.0527 9.39573C13.0636 9.33191 13.0967 9.27399 13.1462 9.23218C13.1957 9.19034 13.2585 9.16733 13.3233 9.16724H19.333C21.0435 9.16724 22.4297 10.5534 22.4297 12.2639C22.4297 12.4648 22.4178 12.6634 22.3952 12.86L22.3901 12.9007C22.2352 14.1505 21.6289 15.3006 20.6852 16.1346C19.7416 16.9685 18.5257 17.4288 17.2664 17.4289C17.2663 17.4289 17.2663 17.4289 17.2663 17.4289H15.5914L13.5811 22.6631Z" fill="#5ABAFF"/>
<path d="M13.5811 22.6631L14.29 18.4526L14.2948 18.4239L14.3029 18.396C14.384 18.117 14.5535 17.8719 14.7859 17.6975C15.0182 17.5231 15.3009 17.4289 15.5914 17.4289L13.5811 22.6631ZM13.5811 22.6631C13.5678 22.723 13.5351 22.777 13.4879 22.8167C13.4373 22.8591 13.3734 22.8824 13.3073 22.8822H13.3064H11.1074C11.0677 22.882 11.0286 22.8732 10.9926 22.8564C10.9565 22.8395 10.9245 22.815 10.8987 22.7845C10.873 22.754 10.8543 22.7183 10.8437 22.6798C10.8332 22.6414 10.8312 22.6011 10.8378 22.5619C10.8378 22.5618 10.8378 22.5618 10.8378 22.5617L13.0526 9.39611C13.0526 9.39598 13.0526 9.39586 13.0527 9.39573C13.0636 9.33191 13.0967 9.27399 13.1462 9.23218C13.1957 9.19034 13.2585 9.16733 13.3233 9.16724H19.333C21.0435 9.16724 22.4297 10.5534 22.4297 12.2639C22.4297 12.4648 22.4178 12.6634 22.3952 12.86L22.3901 12.9007C22.2352 14.1505 21.6289 15.3006 20.6852 16.1346C19.7416 16.9685 18.5257 17.4288 17.2664 17.4289C17.2663 17.4289 17.2663 17.4289 17.2663 17.4289H15.5914L13.5811 22.6631Z" stroke="black"/>
<path d="M13.5811 22.6631L14.29 18.4526L14.2948 18.4239L14.3029 18.396C14.384 18.117 14.5535 17.8719 14.7859 17.6975C15.0182 17.5231 15.3009 17.4289 15.5914 17.4289L13.5811 22.6631ZM13.5811 22.6631C13.5678 22.723 13.5351 22.777 13.4879 22.8167C13.4373 22.8591 13.3734 22.8824 13.3073 22.8822H13.3064H11.1074C11.0677 22.882 11.0286 22.8732 10.9926 22.8564C10.9565 22.8395 10.9245 22.815 10.8987 22.7845C10.873 22.754 10.8543 22.7183 10.8437 22.6798C10.8332 22.6414 10.8312 22.6011 10.8378 22.5619C10.8378 22.5618 10.8378 22.5618 10.8378 22.5617L13.0526 9.39611C13.0526 9.39598 13.0526 9.39586 13.0527 9.39573C13.0636 9.33191 13.0967 9.27399 13.1462 9.23218C13.1957 9.19034 13.2585 9.16733 13.3233 9.16724H19.333C21.0435 9.16724 22.4297 10.5534 22.4297 12.2639C22.4297 12.4648 22.4178 12.6634 22.3952 12.86L22.3901 12.9007C22.2352 14.1505 21.6289 15.3006 20.6852 16.1346C19.7416 16.9685 18.5257 17.4288 17.2664 17.4289C17.2663 17.4289 17.2663 17.4289 17.2663 17.4289H15.5914L13.5811 22.6631Z" stroke="black" stroke-opacity="0.2"/>
<path d="M16.2739 24.6322H15.104L15.3088 23.4205L15.308 23.4204L15.9998 19.3158C16.0221 19.2532 16.0623 19.1983 16.1155 19.158C16.1744 19.1135 16.2461 19.0893 16.32 19.0889H17.9974C17.9974 19.0889 17.9974 19.0889 17.9974 19.0889C19.4923 19.089 20.9363 18.5458 22.0604 17.5605C22.7267 16.9765 23.2536 16.2609 23.6132 15.4663C23.5898 16.6187 23.122 17.719 22.3054 18.5358C21.4675 19.374 20.331 19.8451 19.1458 19.8456C19.1457 19.8456 19.1457 19.8456 19.1456 19.8456H18.6391H18.6389C18.2458 19.8457 17.8655 19.9851 17.5653 20.239C17.2652 20.4929 17.0647 20.8448 16.9994 21.2325L16.9993 21.2328L16.4546 24.4798C16.4545 24.4799 16.4545 24.4801 16.4545 24.4802C16.4471 24.5227 16.425 24.5612 16.3921 24.589C16.359 24.6169 16.3172 24.6322 16.2739 24.6322Z" fill="#5ABAFF"/>
<path d="M16.2739 24.6322H15.104L15.3088 23.4205L15.308 23.4204L15.9998 19.3158C16.0221 19.2532 16.0623 19.1983 16.1155 19.158C16.1744 19.1135 16.2461 19.0893 16.32 19.0889H17.9974C17.9974 19.0889 17.9974 19.0889 17.9974 19.0889C19.4923 19.089 20.9363 18.5458 22.0604 17.5605C22.7267 16.9765 23.2536 16.2609 23.6132 15.4663C23.5898 16.6187 23.122 17.719 22.3054 18.5358C21.4675 19.374 20.331 19.8451 19.1458 19.8456C19.1457 19.8456 19.1457 19.8456 19.1456 19.8456H18.6391H18.6389C18.2458 19.8457 17.8655 19.9851 17.5653 20.239C17.2652 20.4929 17.0647 20.8448 16.9994 21.2325L16.9993 21.2328L16.4546 24.4798C16.4545 24.4799 16.4545 24.4801 16.4545 24.4802C16.4471 24.5227 16.425 24.5612 16.3921 24.589C16.359 24.6169 16.3172 24.6322 16.2739 24.6322Z" stroke="black"/>
<path d="M16.2739 24.6322H15.104L15.3088 23.4205L15.308 23.4204L15.9998 19.3158C16.0221 19.2532 16.0623 19.1983 16.1155 19.158C16.1744 19.1135 16.2461 19.0893 16.32 19.0889H17.9974C17.9974 19.0889 17.9974 19.0889 17.9974 19.0889C19.4923 19.089 20.9363 18.5458 22.0604 17.5605C22.7267 16.9765 23.2536 16.2609 23.6132 15.4663C23.5898 16.6187 23.122 17.719 22.3054 18.5358C21.4675 19.374 20.331 19.8451 19.1458 19.8456C19.1457 19.8456 19.1457 19.8456 19.1456 19.8456H18.6391H18.6389C18.2458 19.8457 17.8655 19.9851 17.5653 20.239C17.2652 20.4929 17.0647 20.8448 16.9994 21.2325L16.9993 21.2328L16.4546 24.4798C16.4545 24.4799 16.4545 24.4801 16.4545 24.4802C16.4471 24.5227 16.425 24.5612 16.3921 24.589C16.359 24.6169 16.3172 24.6322 16.2739 24.6322Z" stroke="black" stroke-opacity="0.2"/>
<path d="M7.00065 0.833618H7.50065H27.0007C28.6362 0.833618 30.2047 1.48332 31.3611 2.63979C32.5176 3.79627 33.1673 5.36478 33.1673 7.00028V27.0003C33.1673 28.6358 32.5176 30.2043 31.3611 31.3608C30.2047 32.5173 28.6362 33.167 27.0007 33.167H7.00065C5.36515 33.167 3.79663 32.5173 2.64016 31.3608C1.48368 30.2043 0.833984 28.6358 0.833984 27.0003V7.00028C0.833984 5.36478 1.48369 3.79627 2.64016 2.63979C3.79663 1.48332 5.36515 0.833618 7.00065 0.833618ZM7.00065 3.16695C5.98399 3.16695 5.00896 3.57082 4.29007 4.28971C3.57119 5.0086 3.16732 5.98362 3.16732 7.00028V27.0003C3.16732 28.0169 3.57119 28.992 4.29007 29.7109C5.00896 30.4297 5.98399 30.8336 7.00065 30.8336H27.0007C28.0173 30.8336 28.9923 30.4297 29.7112 29.7109C30.4301 28.992 30.834 28.0169 30.834 27.0003V7.00028C30.834 5.98362 30.4301 5.0086 29.7112 4.28971C28.9923 3.57082 28.0173 3.16695 27.0007 3.16695H7.00065Z" fill="#5ABAFF"/>
<path d="M7.00065 0.833618H7.50065H27.0007C28.6362 0.833618 30.2047 1.48332 31.3611 2.63979C32.5176 3.79627 33.1673 5.36478 33.1673 7.00028V27.0003C33.1673 28.6358 32.5176 30.2043 31.3611 31.3608C30.2047 32.5173 28.6362 33.167 27.0007 33.167H7.00065C5.36515 33.167 3.79663 32.5173 2.64016 31.3608C1.48368 30.2043 0.833984 28.6358 0.833984 27.0003V7.00028C0.833984 5.36478 1.48369 3.79627 2.64016 2.63979C3.79663 1.48332 5.36515 0.833618 7.00065 0.833618ZM7.00065 3.16695C5.98399 3.16695 5.00896 3.57082 4.29007 4.28971C3.57119 5.0086 3.16732 5.98362 3.16732 7.00028V27.0003C3.16732 28.0169 3.57119 28.992 4.29007 29.7109C5.00896 30.4297 5.98399 30.8336 7.00065 30.8336H27.0007C28.0173 30.8336 28.9923 30.4297 29.7112 29.7109C30.4301 28.992 30.834 28.0169 30.834 27.0003V7.00028C30.834 5.98362 30.4301 5.0086 29.7112 4.28971C28.9923 3.57082 28.0173 3.16695 27.0007 3.16695H7.00065Z" stroke="black"/>
<path d="M7.00065 0.833618H7.50065H27.0007C28.6362 0.833618 30.2047 1.48332 31.3611 2.63979C32.5176 3.79627 33.1673 5.36478 33.1673 7.00028V27.0003C33.1673 28.6358 32.5176 30.2043 31.3611 31.3608C30.2047 32.5173 28.6362 33.167 27.0007 33.167H7.00065C5.36515 33.167 3.79663 32.5173 2.64016 31.3608C1.48368 30.2043 0.833984 28.6358 0.833984 27.0003V7.00028C0.833984 5.36478 1.48369 3.79627 2.64016 2.63979C3.79663 1.48332 5.36515 0.833618 7.00065 0.833618ZM7.00065 3.16695C5.98399 3.16695 5.00896 3.57082 4.29007 4.28971C3.57119 5.0086 3.16732 5.98362 3.16732 7.00028V27.0003C3.16732 28.0169 3.57119 28.992 4.29007 29.7109C5.00896 30.4297 5.98399 30.8336 7.00065 30.8336H27.0007C28.0173 30.8336 28.9923 30.4297 29.7112 29.7109C30.4301 28.992 30.834 28.0169 30.834 27.0003V7.00028C30.834 5.98362 30.4301 5.0086 29.7112 4.28971C28.9923 3.57082 28.0173 3.16695 27.0007 3.16695H7.00065Z" stroke="black" stroke-opacity="0.2"/>
</svg>
