<svg width="36" height="26" viewBox="0 0 36 26" fill="none" xmlns="http://www.w3.org/2000/svg">
<path d="M4.25 0.5C2.19375 0.5 0.5 2.19375 0.5 4.25V21.75C0.5 23.8063 2.19375 25.5 4.25 25.5H31.75C33.8063 25.5 35.5 23.8063 35.5 21.75V4.25C35.5 2.19375 33.8063 0.5 31.75 0.5H4.25ZM4.25 3H31.75C32.4575 3 33 3.5425 33 4.25V21.75C33 22.4575 32.4575 23 31.75 23H4.25C3.5425 23 3 22.4575 3 21.75V4.25C3 3.5425 3.5425 3 4.25 3ZM22.2575 8.46875C19.85 8.46875 18.5863 9.65625 18.5863 11.1638C18.5863 13.8888 21.7887 13.5138 21.7887 14.9138C21.7887 15.1538 21.5887 15.695 20.2663 15.695C18.9412 15.695 18.0788 15.2263 18.0788 15.2263L17.6875 17.0238C17.6875 17.0238 18.5075 17.5313 20.1488 17.5313C21.7887 17.5313 24.0938 16.2713 24.0938 14.445C24.0938 12.2475 20.89 12.1013 20.89 11.125C20.89 10.6275 21.315 10.2263 22.4525 10.2263C23.195 10.2263 24.015 10.8125 24.015 10.8125L24.4062 8.89875C24.4062 8.89875 23.3175 8.46875 22.2575 8.46875ZM11.985 8.625L9.875 14.7975C9.875 14.7975 9.7675 14.265 9.71875 13.9375C8.5275 11.2625 6.59375 10.265 6.59375 10.265L8.43 17.2575H10.93L14.445 8.625H11.985ZM15.3438 8.625L13.9762 17.2575H16.2812L17.6488 8.625H15.3438ZM27.7663 8.625L24.0163 17.2575H26.2812L26.75 16.0475H29.6413L29.875 17.2575H31.945L30.1875 8.625H27.7663ZM4.05375 8.66375C4.05375 8.66375 8.55125 10.0413 9.60125 13.43L8.82 9.52375C8.82 9.52375 8.47875 8.66375 7.57 8.66375H4.05375ZM28.625 11.125L29.2887 14.3675H27.4137L28.625 11.125Z" fill="#5ABAFF"/>
</svg>
