<svg width="37" height="40" viewBox="0 0 37 40" fill="none" xmlns="http://www.w3.org/2000/svg">
<g filter="url(#filter0_d_361_311)">
<path d="M32.7188 17.5C32.7188 25.3524 26.3524 31.7188 18.5 31.7188C10.6476 31.7188 4.28125 25.3524 4.28125 17.5C4.28125 9.64756 10.6476 3.28125 18.5 3.28125C26.3524 3.28125 32.7188 9.64756 32.7188 17.5ZM15.4922 12.4318V22.5682C15.4923 22.7759 15.5517 22.9793 15.6632 23.1545C15.7747 23.3297 15.9338 23.4696 16.1219 23.5577C16.31 23.6459 16.5193 23.6786 16.7253 23.6522C16.9313 23.6257 17.1255 23.5411 17.2853 23.4083L23.3754 18.3408C23.4988 18.2382 23.598 18.1096 23.6662 17.9643C23.7343 17.819 23.7696 17.6605 23.7696 17.5C23.7696 17.3395 23.7343 17.181 23.6662 17.0357C23.598 16.8904 23.4988 16.7618 23.3754 16.6592L17.2853 11.5917C17.1255 11.4589 16.9313 11.3743 16.7253 11.3478C16.5193 11.3214 16.31 11.3541 16.1219 11.4423C15.9338 11.5304 15.7747 11.6703 15.6632 11.8455C15.5517 12.0207 15.4923 12.2241 15.4922 12.4318Z" fill="#5ABAFF"/>
</g>
<defs>
<filter id="filter0_d_361_311" x="-3" y="0" width="43" height="43" filterUnits="userSpaceOnUse" color-interpolation-filters="sRGB">
<feFlood flood-opacity="0" result="BackgroundImageFix"/>
<feColorMatrix in="SourceAlpha" type="matrix" values="0 0 0 0 0 0 0 0 0 0 0 0 0 0 0 0 0 0 127 0" result="hardAlpha"/>
<feOffset dy="4"/>
<feGaussianBlur stdDeviation="2"/>
<feComposite in2="hardAlpha" operator="out"/>
<feColorMatrix type="matrix" values="0 0 0 0 0 0 0 0 0 0 0 0 0 0 0 0 0 0 0.25 0"/>
<feBlend mode="normal" in2="BackgroundImageFix" result="effect1_dropShadow_361_311"/>
<feBlend mode="normal" in="SourceGraphic" in2="effect1_dropShadow_361_311" result="shape"/>
</filter>
</defs>
</svg>
