<svg width="29" height="29" viewBox="0 0 29 29" fill="none" xmlns="http://www.w3.org/2000/svg">
<path d="M0.28125 14.5C0.28125 22.3524 6.64756 28.7188 14.5 28.7188C22.3524 28.7188 28.7188 22.3524 28.7188 14.5C28.7188 6.64756 22.3524 0.28125 14.5 0.28125C6.64756 0.28125 0.28125 6.64756 0.28125 14.5ZM17.5078 9.43184V19.5682C17.5077 19.7759 17.4483 19.9793 17.3368 20.1545C17.2253 20.3297 17.0662 20.4696 16.8781 20.5577C16.69 20.6459 16.4807 20.6786 16.2747 20.6522C16.0687 20.6257 15.8745 20.5411 15.7147 20.4083L9.62461 15.3408C9.50123 15.2382 9.40195 15.1096 9.33382 14.9643C9.26569 14.819 9.23037 14.6605 9.23037 14.5C9.23037 14.3395 9.26569 14.181 9.33382 14.0357C9.40195 13.8904 9.50123 13.7618 9.62461 13.6592L15.7147 8.5917C15.8745 8.45889 16.0687 8.37431 16.2747 8.34784C16.4807 8.32138 16.69 8.35413 16.8781 8.44226C17.0662 8.53039 17.2253 8.67025 17.3368 8.8455C17.4483 9.02074 17.5077 9.22412 17.5078 9.43184Z" fill="#5ABAFF"/>
</svg>
