<svg width="193" height="50" viewBox="0 0 193 50" fill="none" xmlns="http://www.w3.org/2000/svg">
<path d="M31.8965 39.3748C29.8965 41.4582 27.6048 43.604 25.0007 45.8332C13.8965 36.354 8.33398 28.1665 8.33398 21.2498C8.33398 10.8748 16.2507 4.1665 25.0007 4.1665C33.334 4.1665 40.9173 10.2498 41.6048 19.7915H48.959L39.584 29.1665L30.209 19.7915H37.4381C36.7715 12.9998 31.5215 8.33317 25.0007 8.33317C18.0215 8.33317 12.5007 13.6873 12.5007 21.2498C12.5007 26.1248 16.5632 32.5832 25.0007 40.2915C26.334 39.0623 27.5632 37.8748 28.6882 36.729C28.3216 36.0056 28.1289 35.2066 28.1257 34.3957C28.1257 33.0143 28.6744 31.6896 29.6511 30.7128C30.6279 29.7361 31.9526 29.1873 33.334 29.1873C34.7153 29.1873 36.0401 29.7361 37.0168 30.7128C37.9936 31.6896 38.5423 33.0143 38.5423 34.3957C38.5416 35.2013 38.3534 35.9957 37.9926 36.716C37.6318 37.4364 37.1083 38.0628 36.4636 38.5459C35.8188 39.0289 35.0705 39.3553 34.2778 39.4992C33.4851 39.6431 32.6699 39.6005 31.8965 39.3748Z" fill="white"/>
<path d="M70.856 34V19.288H65.096V17.2H78.992V19.288H73.232V34H70.856ZM81.6059 34V17.2H88.1579C89.6299 17.2 90.8859 17.432 91.9259 17.896C92.9659 18.36 93.7659 19.032 94.3259 19.912C94.8859 20.792 95.1659 21.84 95.1659 23.056C95.1659 24.272 94.8859 25.32 94.3259 26.2C93.7659 27.064 92.9659 27.728 91.9259 28.192C90.8859 28.656 89.6299 28.888 88.1579 28.888H82.9259L84.0059 27.784V34H81.6059ZM92.8379 34L88.5659 27.904H91.1339L95.4539 34H92.8379ZM84.0059 28.024L82.9259 26.848H88.0859C89.6219 26.848 90.7819 26.52 91.5659 25.864C92.3659 25.192 92.7659 24.256 92.7659 23.056C92.7659 21.856 92.3659 20.928 91.5659 20.272C90.7819 19.616 89.6219 19.288 88.0859 19.288H82.9259L84.0059 18.088V28.024ZM96.4994 34L104.107 17.2H106.483L114.115 34H111.595L104.803 18.544H105.763L98.9714 34H96.4994ZM99.7394 29.8L100.387 27.88H109.843L110.539 29.8H99.7394ZM120.579 34L113.187 17.2H115.779L122.571 32.704H121.083L127.923 17.2H130.323L122.955 34H120.579ZM134.649 24.448H143.289V26.488H134.649V24.448ZM134.865 31.912H144.657V34H132.465V17.2H144.321V19.288H134.865V31.912ZM148.543 34V17.2H150.943V31.912H160.039V34H148.543ZM162.793 34V17.2H165.193V31.912H174.289V34H162.793ZM174.499 34L182.107 17.2H184.483L192.115 34H189.595L182.803 18.544H183.763L176.971 34H174.499ZM177.739 29.8L178.387 27.88H187.843L188.539 29.8H177.739Z" fill="white"/>
</svg>
